# xmcd
#
# Track frame offsets: 
#        150
#        13047
#        25587
#        36822
#        52722
#        66312
#        76300
#        89102
#        104635
#        114345
#
# Disc length: 1759 seconds
#
# Revision: 2
# Processed by: cddbd v1.4PL0 Copyright (c) Steve Scherf et al.
# Submitted via: ExactAudioCopy v0.90b3
#
DISCID=7806dd0a
DTITLE=Charly McClain - Pure Country
DYEAR=1998
DGENRE=Country
TTITLE0=Sleepin' With The Radio On
TTITLE1=The Very Best Is You
TTITLE2=Men
TTITLE3=Sentimental Ol' You
TTITLE4=Pardise Tonight (With Mickey Gilley)
TTITLE5=That's What You Do To Me
TTITLE6=When A Love Ain't Right
TTITLE7=Dancing Your Memory Away
TTITLE8=Who's Cheating Who
TTITLE9=Surround Me With Love
EXTD=\nYEAR: 1998  ID3G:   2
EXTT0=
EXTT1=
EXTT2=
EXTT3=
EXTT4=
EXTT5=
EXTT6=
EXTT7=
EXTT8=
EXTT9=
PLAYORDER=
